<?xml version="1.0" encoding="UTF-8"?>
<svg width="16" height="16" version="1.1" xmlns="http://www.w3.org/2000/svg" xmlns:xlink="http://www.w3.org/1999/xlink"><defs><linearGradient id="linearGradient9793" x1="-3.1651" x2="-3.1651" y1="1030.4" y2="1041.1" gradientTransform="matrix(.84746 0 0 .67963 9.4012 355.64)" gradientUnits="userSpaceOnUse"><stop stop-color="#f9fafc" offset="0"/><stop stop-color="#e0eaf8" offset="1"/></linearGradient><linearGradient id="linearGradient9795" x1="8.0138" x2="8.0138" y1="1036" y2="1051" gradientTransform="translate(-9.405 18.529)" gradientUnits="userSpaceOnUse"><stop stop-color="#c7b571" offset="0"/><stop stop-color="#9a9990" offset="1"/></linearGradient><linearGradient id="linearGradient9801" x1="5" x2="11" y1="1037.9" y2="1037.9" gradientTransform="translate(-3.4996 19.563)" gradientUnits="userSpaceOnUse"><stop stop-color="#849abe" offset="0"/><stop stop-color="#677da9" offset="1"/></linearGradient><linearGradient id="linearGradient9803" x1="5" x2="11" y1="1037.9" y2="1037.9" gradientTransform="translate(-3.4996 21.562)" gradientUnits="userSpaceOnUse"><stop stop-color="#849abe" offset="0"/><stop stop-color="#677da9" offset="1"/></linearGradient><linearGradient id="linearGradient9805" x1="5" x2="11" y1="1037.9" y2="1037.9" gradientTransform="translate(-3.4996 23.437)" gradientUnits="userSpaceOnUse"><stop stop-color="#849abe" offset="0"/><stop stop-color="#677da9" offset="1"/></linearGradient><linearGradient id="linearGradient9807" x1="5" x2="11" y1="1037.9" y2="1037.9" gradientTransform="translate(-3.4996 25.562)" gradientUnits="userSpaceOnUse"><stop stop-color="#849abe" offset="0"/><stop stop-color="#677da9" offset="1"/></linearGradient></defs><g transform="translate(0 -1036.4)"><g transform="translate(2.9375 -17)"><rect x=".44025" y="1055.8" width="8.2474" height="9.016" fill="url(#linearGradient9793)"/><rect x=".0255" y="1055.4" width="9.1525" height="9.9202" rx="0" ry="0" fill="none" stroke="url(#linearGradient9795)"/><g><rect x="1.5004" y="1056.9" width="6" height="1" fill="url(#linearGradient9801)"/><rect x="1.5004" y="1058.9" width="6" height="1" fill="url(#linearGradient9803)"/><rect x="1.5004" y="1060.8" width="6" height="1" fill="url(#linearGradient9805)"/><rect x="1.5004" y="1062.9" width="6" height="1" fill="url(#linearGradient9807)"/></g><path d="m9.8155 1068.3c-0.024 0-0.048 0-0.096-0.024s-0.096-0.072-0.144-0.12l-0.888-2.064-1.08 1.008c-0.024 0.048-0.072 0.072-0.144 0.072-0.024 0-0.072 0-0.096-0.024-0.072-0.024-0.144-0.12-0.144-0.216v-5.28c0-0.096 0.048-0.192 0.144-0.216 0.024-0.024 0.072-0.024 0.096-0.024 0.048 0 0.12 0.024 0.168 0.072l3.84 3.6c0.072 0.072 0.096 0.168 0.072 0.264s-0.12 0.144-0.216 0.168l-1.512 0.144 0.936 2.04c0.024 0.048 0.024 0.12 0 0.192-0.024 0.048-0.072 0.12-0.12 0.144l-0.696 0.312c-0.048-0.048-0.096-0.048-0.12-0.048z" fill="#e0e0e0" stroke-width=".24"/><path d="m7.4635 1061.6 3.84 3.6-1.848 0.168 1.08 2.352-0.696 0.312-1.032-2.376-1.344 1.224v-5.28m0-0.48c-0.072 0-0.12 0.024-0.192 0.048-0.168 0.072-0.288 0.24-0.288 0.432v5.28c0 0.192 0.12 0.36 0.288 0.432 0.072 0.048 0.144 0.048 0.192 0.048 0.12 0 0.24-0.048 0.336-0.12l0.816-0.768 0.744 1.752c0.048 0.12 0.144 0.216 0.264 0.264 0.048 0.024 0.12 0.024 0.168 0.024 0.072 0 0.12-0.024 0.192-0.048l0.696-0.312c0.12-0.048 0.216-0.144 0.264-0.264s0.048-0.264 0-0.36l-0.792-1.728 1.176-0.096c0.192-0.024 0.36-0.144 0.408-0.312 0.072-0.168 0.024-0.384-0.12-0.504l-3.84-3.6c-0.072-0.12-0.192-0.168-0.312-0.168z" fill="#212121" stroke-width=".24"/></g></g></svg>
